<svg width="36" height="36" viewBox="0 0 36 36" fill="none" xmlns="http://www.w3.org/2000/svg">
<g id="pin_drop">
<mask id="mask0_3_54" style="mask-type:alpha" maskUnits="userSpaceOnUse" x="0" y="0" width="36" height="36">
<rect id="Bounding box" width="36" height="36" fill="#D9D9D9"/>
</mask>
<g mask="url(#mask0_3_54)">
<path id="pin_drop_2" d="M18 24.7125C20.475 22.7125 22.3438 20.7875 23.6063 18.9375C24.8687 17.0875 25.5 15.35 25.5 13.725C25.5 12.325 25.2437 11.1313 24.7313 10.1438C24.2188 9.15625 23.5875 8.35625 22.8375 7.74375C22.0875 7.13125 21.275 6.6875 20.4 6.4125C19.525 6.1375 18.725 6 18 6C17.275 6 16.475 6.1375 15.6 6.4125C14.725 6.6875 13.9125 7.13125 13.1625 7.74375C12.4125 8.35625 11.7812 9.15625 11.2688 10.1438C10.7563 11.1313 10.5 12.325 10.5 13.725C10.5 15.35 11.1312 17.0875 12.3938 18.9375C13.6562 20.7875 15.525 22.7125 18 24.7125ZM18 28.5C14.475 25.9 11.8438 23.375 10.1063 20.925C8.36875 18.475 7.5 16.075 7.5 13.725C7.5 11.95 7.81875 10.3937 8.45625 9.05625C9.09375 7.71875 9.9125 6.6 10.9125 5.7C11.9125 4.8 13.0375 4.125 14.2875 3.675C15.5375 3.225 16.775 3 18 3C19.225 3 20.4625 3.225 21.7125 3.675C22.9625 4.125 24.0875 4.8 25.0875 5.7C26.0875 6.6 26.9062 7.71875 27.5438 9.05625C28.1812 10.3937 28.5 11.95 28.5 13.725C28.5 16.075 27.6313 18.475 25.8937 20.925C24.1562 23.375 21.525 25.9 18 28.5ZM18 16.5C18.825 16.5 19.5313 16.2063 20.1188 15.6188C20.7063 15.0313 21 14.325 21 13.5C21 12.675 20.7063 11.9688 20.1188 11.3813C19.5313 10.7938 18.825 10.5 18 10.5C17.175 10.5 16.4688 10.7938 15.8813 11.3813C15.2938 11.9688 15 12.675 15 13.5C15 14.325 15.2938 15.0313 15.8813 15.6188C16.4688 16.2063 17.175 16.5 18 16.5ZM7.5 33V30H28.5V33H7.5Z" fill="white"/>
</g>
</g>
</svg>
